<?xml version="1.0" encoding="utf-8"?>
<!-- Generator: Adobe Illustrator 24.3.0, SVG Export Plug-In . SVG Version: 6.00 Build 0)  -->
<svg version="1.1" id="Capa_1" xmlns="http://www.w3.org/2000/svg" xmlns:xlink="http://www.w3.org/1999/xlink" x="0px" y="0px"
	 viewBox="0 0 800 800" style="enable-background:new 0 0 800 800;" xml:space="preserve">
<style type="text/css">
	.st0{fill:#FFFFFF;}
</style>
<path class="st0" d="M220.7,800h206.8V490H323V369.5h104.5v-89C427.5,177,490.5,121,583,121c44,0,82,3,93,4.5v108h-64
	c-50,0-60,24-60,59v77h119.5L656,490H552v310h27.3C701.2,800,800,701.2,800,579.3V220.7C800,98.8,701.2,0,579.3,0H220.7
	C98.8,0,0,98.8,0,220.7v358.6C0,701.2,98.8,800,220.7,800z"/>
</svg>
