<?xml version="1.0" encoding="utf-8"?>
<!-- Generator: Adobe Illustrator 24.3.0, SVG Export Plug-In . SVG Version: 6.00 Build 0)  -->
<svg version="1.1" id="Capa_1" xmlns="http://www.w3.org/2000/svg" xmlns:xlink="http://www.w3.org/1999/xlink" x="0px" y="0px"
	 viewBox="0 0 800 800" style="enable-background:new 0 0 800 800;" xml:space="preserve">
<style type="text/css">
	.st0{fill:none;}
	.st1{fill:#FFFFFF;}
</style>
<rect class="st0" width="800" height="800"/>
<g>
	<path class="st1" d="M535,400c0-75-60-135-135-135s-135,60-135,135s60,135,135,135S535,475,535,400z M605,400c0,115-90,205-205,205
		s-205-90-205-205s90-205,205-205S605,285,605,400L605,400z M660,185c0,30-20,50-50,50s-50-20-50-50s20-50,50-50S660,160,660,185z
		 M400,70c-60,0-185-5-235,15c-35,15-65,45-75,80c-20,50-15,175-15,235s-5,185,15,235c10,35,40,65,75,75c50,20,180,15,235,15
		s185,5,235-15c35-15,60-40,75-75c20-55,15-180,15-235s5-185-15-235c-10-35-40-65-75-75C585,65,460,70,400,70L400,70z M800,400v165
		c0,60-20,120-65,170c-45,45-105,65-170,65H235c-60,0-120-20-170-65C25,690,0,630,0,565V400V235c0-65,25-125,65-170
		C115,25,175,0,235,0h330c60,0,120,20,170,65c40,45,65,105,65,170L800,400L800,400z"/>
</g>
</svg>
