<?xml version="1.0" encoding="utf-8"?>
<!-- Generator: Adobe Illustrator 24.3.0, SVG Export Plug-In . SVG Version: 6.00 Build 0)  -->
<svg version="1.1" id="Capa_1" xmlns="http://www.w3.org/2000/svg" xmlns:xlink="http://www.w3.org/1999/xlink" x="0px" y="0px"
	 viewBox="0 0 791.7 211.6" style="enable-background:new 0 0 791.7 211.6;" xml:space="preserve">
<style type="text/css">
	.st0{fill:#76C6FB;}
</style>
<path class="st0" d="M313.8,136.9c0-41,23.8-75.1,70.9-75.1c44.3,0,69.2,31.3,69.2,70.6v15.8h-96.7c0.3,16.9,8.9,28.8,28.3,28.8
	c15.8,0,22.7-7.8,25.2-14.4H452c-3.9,26-26.9,49-66.5,49C339.8,211.6,313.8,178.4,313.8,136.9z M410.4,121.3
	c-0.8-13.9-8.9-24.6-25.8-24.6c-18.3,0-26.3,10.8-27.1,24.6H410.4z"/>
<path class="st0" d="M474.7,64.3h35.5l3.3,21h1.1c6.4-12.7,18.6-23.5,37.1-23.5h10v39.1h-13.9c-20.2,0-33.2,13.6-33.2,36.8v71.5
	h-39.9V64.3z"/>
<path class="st0" d="M578.3,24.7c0-15.2,8.9-24.7,25.8-24.7c16.3,0,25.8,9.4,25.8,24.7c0,15.5-9.4,24.9-25.8,24.9
	C587.2,49.6,578.3,40.2,578.3,24.7z M582.5,64.3h42.6v144.9h-42.6V64.3z"/>
<path class="st0" d="M643.1,160.1h42.7c0,8,6.4,16.1,21.6,16.1s20.5-5.5,20.5-10.5c0-6.4-4.7-9.4-14.7-11.4l-21.3-4.2
	c-23.3-4.4-44.3-16.3-44.3-45.4c0-23.5,20.8-42.9,59.6-42.9c37.7,0,60.4,21.6,60.4,48.5h-42.1c0.3-6.6-4.7-15-19.1-15
	c-10.5,0-16.9,4.4-16.9,10s3.9,8.6,10.8,10l27.7,5.3c22.2,4.2,42.9,14.4,42.9,44.9c0,29.9-26.6,46.3-63.4,46.3
	C662.2,211.6,644,189.8,643.1,160.1z"/>
<path class="st0" d="M319.7,61.8h-46.8l-35.3,100.9c-1.3,3.8-5.4,5.7-9.2,4.4c-2.2-0.8-3.9-2.6-4.6-4.9l-18.4-65.7
	c-7-25.2-33.2-39.9-58.4-32.9c-15.9,4.5-28.4,16.9-32.9,32.9l-18.4,65.7c-0.7,3.1-3.5,5.4-6.7,5.3c-3.2,0.2-6.1-1.8-7-4.8L46.7,61.8
	H31.3h-0.1H0l3.4,9.8l0,0l1.8,5.1L9.8,90l0,0l30.6,87.3c7.6,21.6,27.1,35.2,50.1,34.4c22.5-0.4,42-15.7,47.8-37.5l18.4-65.7
	c0.5-1.7,2.3-2.7,4-2.2c1.1,0.3,1.9,1.1,2.2,2.2l18.4,65.7c5.8,21.7,25.3,37,47.8,37.5h1.8c21.9,0.2,41.4-13.7,48.4-34.4l37-105.7
	l0,0L319.7,61.8z"/>
</svg>
