<svg width="147" height="172" viewBox="0 0 147 172" fill="none" xmlns="http://www.w3.org/2000/svg">
<path d="M16.9397 0H130.65L146.01 145.08C146.652 151.154 145.007 157.253 141.397 162.181L134.244 171.937H13.3465L6.10135 162.849C2.0548 157.77 0.182633 151.297 0.896238 144.845L16.9397 0Z" fill="#76C6FB"/>
<path d="M98.383 19.259H48.5146C42.7838 19.259 38.138 23.9048 38.138 29.6357C38.138 35.3665 42.7838 40.0123 48.5146 40.0123H98.383C104.114 40.0123 108.76 35.3665 108.76 29.6357C108.76 23.9048 104.114 19.259 98.383 19.259Z" fill="#FC541F"/>
<path d="M131.066 0L125.08 124.201L134.655 171.937L141.833 162.295C145.17 157.811 146.707 152.237 146.136 146.679L131.066 0Z" fill="#1A287A"/>
<path d="M15.9367 0L21.9225 124.201L12.3476 171.937L5.16963 162.295C1.83248 157.811 0.29613 152.237 0.867013 146.679L15.9367 0Z" fill="#1A287A"/>
<path d="M73.5034 145.89C85.9968 145.89 96.1247 135.762 96.1247 123.269C96.1247 110.775 85.9968 100.648 73.5034 100.648C61.0101 100.648 50.8822 110.775 50.8822 123.269C50.8822 135.762 61.0101 145.89 73.5034 145.89Z" fill="white"/>
</svg>
