<svg width="171" height="156" viewBox="0 0 171 156" fill="none" xmlns="http://www.w3.org/2000/svg">
<path d="M162.632 120.012C162.445 119.979 162.312 119.904 162.366 119.68C162.453 119.792 162.545 119.9 162.632 120.012Z" fill="#FEFEFD"/>
<path d="M170.019 138.586C169.021 139.501 169.233 140.86 168.793 141.983C166.024 149.042 160.936 153.39 153.607 155.182C148.901 156.333 144.436 155.652 140.175 153.407C140.254 152.796 140.832 152.75 141.218 152.48C143.526 150.85 145.924 149.312 147.13 146.581C149.134 147.296 151.162 146.552 152.908 146.028C158.949 144.215 162.208 137.909 160.545 131.939C158.899 126.036 154.426 123.583 148.826 123.33C147.903 121.658 146.984 119.991 146.061 118.32C146.194 118.121 146.327 117.925 146.461 117.726C147.126 117.996 147.67 117.597 148.265 117.418C151.158 116.549 154.068 115.755 157.124 115.747C158.965 117.289 161.501 117.771 163.106 119.675C163.056 119.9 163.185 119.979 163.372 120.008C165.945 122.369 167.803 125.2 168.972 128.489C169.375 129.624 169.329 130.892 170.011 131.943V138.578L170.019 138.586Z" fill="#1A287A"/>
<path d="M146.465 117.73C146.332 117.929 146.199 118.125 146.066 118.324C142.848 119.056 140.171 120.852 137.51 122.673C135.456 124.302 133.528 126.044 132.492 128.543C131.661 130.542 130.618 132.384 128.834 133.71C128.734 133.785 128.635 133.86 128.535 133.935C126.706 134.596 124.939 135.39 122.997 135.776C121.925 135.988 120.919 135.839 119.892 135.839C106.398 135.863 92.9037 135.847 79.4137 135.839C79.4137 132.858 79.7546 129.827 79.3513 126.905C77.6219 114.429 67.6031 106.106 55.5099 106.081C50.6585 106.069 45.8071 106.102 40.9557 106.115C38.029 106.605 35.1315 107.245 32.4376 108.513C24.7219 112.147 19.7624 118.108 17.5175 126.339C17.3887 126.805 17.5924 127.528 16.7942 127.657C16.6154 121.022 16.2371 114.367 19.0224 108.069C19.5629 106.846 20.1158 105.633 20.6604 104.41C21.2424 102.681 22.6309 101.425 23.375 99.7958C23.5496 99.667 23.7616 99.5672 23.8905 99.4009C26.9169 95.5223 30.6625 92.5291 34.9569 90.1554C40.1284 87.2911 45.7905 86.5261 51.544 86.0896C56.7571 86.0896 61.9702 86.098 67.1833 86.1021C70.7376 86.2144 74.317 85.9899 77.8256 86.8296C82.4068 88.9207 85.3169 92.2714 85.7949 97.4429C85.9155 97.9958 86.036 98.5487 86.1566 99.1016C86.2605 103.483 85.533 107.906 86.6762 112.238C88.6426 119.684 93.5065 124.261 100.931 125.928C105.367 126.921 109.944 126.123 114.45 126.314C115.402 126.356 116.225 126.048 117.119 125.724C120.079 124.656 121.222 122.278 121.879 119.542C123.234 113.918 123.047 108.173 122.881 102.461C122.74 97.6383 121.501 92.9614 120.487 88.2597C119.31 82.8096 117.576 77.5217 115.876 72.2213C116.13 71.8971 116.383 71.5728 116.633 71.2485C117.834 71.2527 119.036 71.2569 120.237 71.2652C124.515 84.1233 128.809 96.9814 133.049 109.852C133.382 110.862 133.939 111.033 134.87 111.066C139.88 111.261 143.355 114.184 146.465 117.717V117.73Z" fill="#FC541F"/>
<path d="M0.182132 74.566C0.161346 64.2063 0.140561 53.8466 0.123932 43.4911C0.123932 41.9529 1.0884 41.3917 2.44363 41.2421C7.93526 41.2712 13.4269 41.3003 18.9185 41.3335C19.6335 41.3377 20.3444 41.3668 21.0594 41.3834C21.0594 44.5844 21.0927 47.7896 21.0428 50.9906C21.0179 52.5537 21.7994 53.223 23.242 53.2563C24.8425 53.2937 26.4471 53.2812 28.0477 53.2646C30.0098 53.2397 30.596 52.6535 30.6085 50.6747C30.6251 47.5817 30.6085 44.4888 30.6085 41.3959C31.1822 41.3959 31.7517 41.3876 32.3254 41.3834C32.3254 50.9366 32.3254 60.4856 32.3171 70.0388C32.3171 72.9363 30.7249 74.5535 27.8564 74.5535C18.6358 74.5618 9.41521 74.5618 0.190447 74.566H0.182132Z" fill="#1A287A"/>
<path d="M0.18214 74.5661C9.40275 74.5661 18.6234 74.5619 27.8481 74.5536C30.7166 74.5536 32.3088 72.9365 32.3088 70.0389C32.3129 60.4857 32.3129 50.9367 32.3171 41.3835C37.9958 41.3544 43.6703 41.2962 49.349 41.317C50.9911 41.3212 51.5357 42.1401 51.544 44.3019C51.5648 48.2179 51.544 52.1298 51.5523 56.0459C51.5648 63.3251 51.5856 70.6001 51.6022 77.8793C51.5606 78.3491 51.519 78.823 51.4775 79.2928C42.0989 79.2928 32.7203 79.2761 23.3417 79.2886C18.7107 79.2928 14.0754 79.3343 9.44432 79.3593C7.34079 79.1597 5.2331 79.2263 3.12542 79.3219C2.84689 79.2138 2.61409 79.2637 2.43117 79.5048C0.768302 79.1972 -0.146276 78.3325 0.115626 76.5116C0.207083 75.8756 0.169669 75.2187 0.190455 74.5702L0.18214 74.5661Z" fill="#16235B"/>
<path d="M146.465 117.73C143.355 114.196 139.88 111.274 134.87 111.079C133.935 111.041 133.382 110.875 133.049 109.865C128.805 96.994 124.515 84.1359 120.237 71.2778C122.324 71.3235 124.44 70.862 126.498 71.5688C126.51 73.3813 127.699 74.67 128.522 76.1167C131.902 82.0573 135.274 88.0062 138.72 93.9094C139.776 95.7178 141.027 97.4264 141.759 99.3969C142.212 100.615 142.977 100.86 144.149 100.785C149.088 100.461 153.644 101.667 157.751 104.448C161.231 106.805 163.796 109.91 165.376 113.831C165.833 114.97 165.82 115.435 164.332 115.41C161.933 115.373 159.502 115.04 157.136 115.755C154.081 115.764 151.171 116.558 148.277 117.427C147.683 117.605 147.138 118.004 146.473 117.734L146.465 117.73Z" fill="#EA471B"/>
<path d="M126.494 71.5645C124.436 70.8577 122.324 71.3192 120.233 71.2735C119.032 71.2693 117.83 71.2651 116.629 71.2568C113.17 71.1737 112.684 70.866 112.247 68.5172C112.264 67.0248 112.297 65.5324 112.301 64.04C112.309 61.2214 112.284 61.1133 115.14 60.5563C119.381 59.729 123.621 58.7936 127.957 58.6481C131.553 58.5276 132.609 59.359 133.299 62.9217C133.765 65.3329 133.877 67.8022 131.844 69.7686C130.805 70.7704 129.599 71.2111 128.173 71.2485C127.616 71.261 126.951 70.9242 126.498 71.5603L126.494 71.5645Z" fill="#1A287A"/>
<path d="M77.8173 86.8297C74.3128 85.9899 70.7335 86.2144 67.1749 86.1022C67.1749 82.2984 67.1749 78.4904 67.1749 74.6866C71.7977 74.6575 76.4246 74.4995 81.0391 74.6408C85.375 74.7739 86.9381 78.6234 85.4831 82.2734C84.4812 84.7843 82.4608 86.0897 79.7379 86.2061C79.1351 86.231 78.0251 85.3788 77.8173 86.8297Z" fill="#1A287A"/>
<path d="M67.1749 74.6866C67.1749 78.4904 67.1749 82.2984 67.1749 86.1022C61.9618 86.1022 56.7487 86.0939 51.5357 86.0897C51.5107 84.007 51.4816 81.9284 51.4567 79.8456C51.519 79.7417 51.5107 79.6419 51.4359 79.5463C51.4775 79.4673 51.4899 79.38 51.4691 79.2927C51.5107 78.823 51.5523 78.3491 51.5939 77.8793C52.7495 75.3808 54.7699 74.5494 57.4264 74.6409C60.6731 74.7531 63.924 74.6783 67.1708 74.6866H67.1749Z" fill="#1A287A"/>
<path d="M30.6002 41.3917C30.6002 44.4847 30.6168 47.5776 30.6002 50.6705C30.5918 52.6535 30.0015 53.2397 28.0393 53.2604C26.4388 53.2812 24.8342 53.2937 23.2337 53.2521C21.7953 53.2189 21.0096 52.5496 21.0345 50.9865C21.0844 47.7855 21.0511 44.5803 21.0511 41.3793C24.2314 41.213 27.4158 41.1839 30.596 41.3917H30.6002Z" fill="white"/>
<path d="M112.247 68.5173C112.684 70.8661 113.17 71.1738 116.629 71.2569C116.375 71.5812 116.121 71.9054 115.872 72.2297C114.388 72.9281 113.257 74.1212 111.968 75.0815C111.395 75.5097 110.846 75.9504 110.193 76.2331C109.137 76.6862 108.069 76.9356 107.213 75.8755C106.365 74.8238 106.439 73.244 107.371 72.3045C108.834 70.837 110.513 69.6398 112.247 68.5132V68.5173Z" fill="#1A287A"/>
<path d="M16.7859 127.653C17.584 127.524 17.3803 126.801 17.5092 126.335C19.7541 118.104 24.7177 112.143 32.4293 108.509C35.1231 107.241 38.0207 106.601 40.9432 106.111C41.1635 107.1 42.1113 106.851 42.6934 106.996C48.239 108.385 52.4752 111.669 55.7968 116.154C59.4634 121.101 60.4736 126.805 60.1992 132.85C60.0537 136.059 60.5276 135.539 57.4929 135.61C57.1354 135.635 56.7404 135.56 56.5284 135.976C48.7836 135.976 41.0346 135.976 33.2898 135.972C33.1734 135.93 33.057 135.893 32.9406 135.851C30.305 135.448 27.6652 135.448 25.0295 135.851C24.8009 135.893 24.5722 135.934 24.3478 135.972C22.8595 135.947 21.3754 135.93 19.8871 135.901C17.8875 135.863 16.7318 134.733 16.7152 132.771C16.7027 131.503 16.7568 130.239 16.7817 128.971C17.0602 128.751 17.0602 128.526 16.7817 128.302C16.7817 128.09 16.7817 127.873 16.7817 127.661L16.7859 127.653Z" fill="#EA471B"/>
<path d="M57.4971 135.61C60.5318 135.535 60.0537 136.059 60.2034 132.85C60.4778 126.809 59.4676 121.101 55.8009 116.154C52.4794 111.673 48.2474 108.385 42.6975 106.996C42.1114 106.851 41.1635 107.1 40.9474 106.111C45.7988 106.098 50.6502 106.065 55.5016 106.077C67.5948 106.106 77.6136 114.425 79.343 126.901C79.7504 129.827 79.4054 132.854 79.4054 135.834C74.7826 135.884 70.1598 135.934 65.5329 135.984C62.8598 135.972 60.1868 135.963 57.5137 135.951C57.5054 135.834 57.4971 135.722 57.4887 135.606L57.4971 135.61Z" fill="#C63B1A"/>
<path d="M128.834 133.706C130.618 132.384 131.665 130.542 132.492 128.539C133.528 126.04 135.457 124.298 137.51 122.669C138.928 124.061 139.152 126.127 140.304 127.67C136.887 132.43 136.67 136.379 139.468 141.122C141.198 144.057 143.962 145.625 147.134 146.581C145.924 149.312 143.53 150.85 141.222 152.48C140.84 152.75 140.258 152.796 140.179 153.407C135.411 151.154 132.093 147.454 130.314 142.598C129.591 140.619 128.065 138.582 129.142 136.134C129.354 135.652 128.934 134.891 128.809 134.263C128.818 134.076 128.826 133.889 128.834 133.702V133.706Z" fill="#1A287A"/>
<path d="M57.522 135.951C60.195 135.963 62.8681 135.971 65.5412 135.984C65.0465 138.453 64.8719 141.006 63.8035 143.334C60.723 150.052 55.3436 153.851 48.2806 155.51C45.2708 156.217 42.3566 155.834 39.4715 154.907C38.2701 154.521 36.9066 154.562 35.9421 153.556C35.9421 152.796 36.574 152.625 37.0645 152.288C39.4133 150.663 41.6541 148.925 42.9469 146.265C43.7701 145.899 44.1608 146.98 44.8842 146.867C47.6861 146.448 50.2885 145.649 52.5749 143.791C55.0111 141.808 55.7843 139.01 56.8444 136.312C57.0772 136.196 57.4222 136.296 57.5345 135.947L57.522 135.951Z" fill="#1A287A"/>
<path d="M42.9428 146.265C41.6499 148.925 39.4092 150.663 37.0604 152.288C36.5699 152.629 35.9338 152.796 35.938 153.556C28.7295 149.894 24.9256 143.995 24.3561 135.967C24.5848 135.926 24.8134 135.884 25.0379 135.847C27.6735 135.847 30.3133 135.847 32.949 135.847C33.0654 135.888 33.1818 135.926 33.2982 135.967C33.3314 138 34.1088 139.809 35.2479 141.401C37.1269 144.036 39.43 146.144 42.947 146.265H42.9428Z" fill="#1A287A"/>
<path d="M3.12125 79.3177C5.22894 79.2262 7.33662 79.1556 9.44015 79.3551C9.55655 79.6586 9.61891 80.0036 9.80183 80.2655C12.5954 84.2315 15.4473 88.16 18.2035 92.155C19.9495 94.6868 22.0281 96.994 23.3708 99.7959C22.6225 101.43 21.2382 102.685 20.6562 104.41C14.7987 96.1335 8.93714 87.8607 3.07968 79.5838C3.10047 79.4965 3.11294 79.405 3.12541 79.3177H3.12125Z" fill="#CDCCCB"/>
<path d="M3.12126 79.3176C3.11294 79.4091 3.09631 79.4964 3.07553 79.5837C2.85935 79.5546 2.64318 79.5296 2.42285 79.5005C2.60577 79.2594 2.84273 79.2095 3.1171 79.3176H3.12126Z" fill="#FAD9B2"/>
<path d="M16.7859 128.297C17.0602 128.522 17.0602 128.746 16.7859 128.967C16.7859 128.742 16.7859 128.518 16.7859 128.297Z" fill="#FF4C4C"/>
<path d="M128.834 133.706L128.809 134.267C128.718 134.155 128.626 134.043 128.535 133.931C128.635 133.856 128.734 133.781 128.834 133.706Z" fill="#FEFEFD"/>
<path d="M147.13 146.581C143.958 145.629 141.193 144.057 139.464 141.122C136.666 136.375 136.887 132.425 140.3 127.67C141.713 130.384 143.122 133.103 144.548 135.814C145.513 137.651 147.874 139.227 149.221 138.857C152.983 137.817 154.829 135.044 152.954 131.349C151.595 128.667 150.206 126.003 148.83 123.33C154.43 123.583 158.903 126.036 160.549 131.939C162.212 137.909 158.953 144.215 152.912 146.028C151.162 146.552 149.138 147.3 147.134 146.581H147.13Z" fill="white"/>
<path d="M148.83 123.33C150.206 126.003 151.595 128.672 152.954 131.349C154.829 135.045 152.983 137.813 149.221 138.857C147.874 139.231 145.513 137.651 144.548 135.814C143.126 133.103 141.717 130.384 140.3 127.67C139.148 126.127 138.924 124.066 137.506 122.669C140.171 120.848 142.848 119.052 146.061 118.32C146.984 119.987 147.903 121.659 148.826 123.326L148.83 123.33Z" fill="#C63B1A"/>
<path d="M51.4608 79.8456C51.4234 79.7791 51.3818 79.7126 51.3569 79.6377C51.3527 79.6169 51.4109 79.5754 51.44 79.5463C51.5149 79.6419 51.519 79.7417 51.4608 79.8456Z" fill="#FEFEFD"/>
<path d="M42.9428 146.265C39.43 146.148 37.1269 144.041 35.2437 141.401C34.1088 139.809 33.3273 137.996 33.294 135.968C41.0388 135.968 48.7878 135.968 56.5326 135.972C56.6324 136.088 56.7321 136.2 56.8319 136.317C55.776 139.015 55.0028 141.813 52.5625 143.795C50.2761 145.654 47.6737 146.452 44.8717 146.872C44.1484 146.98 43.7618 145.903 42.9345 146.269L42.9428 146.265Z" fill="white"/>
<path d="M32.9448 135.847C30.3092 135.847 27.6694 135.847 25.0337 135.847C27.6694 135.444 30.3092 135.444 32.9448 135.847Z" fill="#EE2A2A"/>
<path d="M56.8319 136.317C56.7321 136.2 56.6324 136.088 56.5326 135.972C56.7446 135.56 57.1395 135.635 57.4971 135.606C57.5054 135.722 57.5137 135.834 57.522 135.951C57.4139 136.3 57.0647 136.2 56.8319 136.317Z" fill="#FF4C4C"/>
<path d="M62.1947 23.0794C62.1614 11.0485 71.8102 0.821869 83.708 0.285594C96.1255 -0.271467 106.581 8.69139 107.77 20.8802C108.277 26.0892 107.196 30.9406 104.357 35.3098C98.7819 43.8902 93.1157 52.4124 87.462 60.9429C86.036 63.0963 84.0531 63.0797 82.6189 60.9179C77.094 52.5994 71.5649 44.2809 66.0899 35.9292C63.2963 31.6722 62.2071 27.8726 62.1947 23.0794ZM84.9843 55.1478C85.2212 54.8734 85.4 54.7113 85.533 54.5117C90.2805 47.3323 95.0322 40.1612 99.7589 32.9693C101.472 30.3627 102.486 27.5026 102.673 24.3639C103.122 16.8436 99.1685 10.1921 92.3342 7.00774C85.9404 4.0312 78.2247 5.3324 72.9077 10.2919C66.5015 16.2616 65.562 25.5944 70.6337 33.4224C73.6186 38.0285 76.6783 42.589 79.7088 47.166C81.4507 49.7975 83.1925 52.429 84.9884 55.1478H84.9843Z" fill="#1A287A"/>
<path d="M84.9843 55.1477C83.1884 52.4289 81.4465 49.7974 79.7047 47.1659C76.6782 42.5847 73.6144 38.0285 70.6295 33.4223C65.5578 25.5944 66.4973 16.2615 72.9035 10.2918C78.2247 5.33649 85.9363 4.03114 92.33 7.00768C99.1644 10.1879 103.118 16.8394 102.669 24.3639C102.482 27.5025 101.467 30.3627 99.7547 32.9692C95.028 40.1611 90.2763 47.3322 85.5289 54.5117C85.4 54.7071 85.2171 54.8733 84.9801 55.1477H84.9843ZM72.2883 23.1749C72.3132 30.1423 78.1208 35.9374 85.0632 35.9208C92.0182 35.9042 97.7842 30.1423 97.8382 23.1624C97.8923 16.2117 91.9018 10.2461 84.9718 10.3376C77.967 10.429 72.2633 16.2075 72.2883 23.1749Z" fill="#FC541F"/>
<path d="M72.2883 23.1791C72.2633 16.2117 77.967 10.4332 84.9718 10.3417C91.9018 10.2503 97.8881 16.22 97.8382 23.1666C97.7842 30.1465 92.0182 35.9083 85.0633 35.925C78.1249 35.9416 72.3174 30.1465 72.2883 23.1791ZM92.6127 23.1126C92.6002 18.9346 89.2745 15.5881 85.0965 15.5465C80.9227 15.5049 77.4224 18.9845 77.439 23.1625C77.4556 27.2781 80.8687 30.7036 84.9967 30.7534C89.1581 30.8033 92.6251 27.3238 92.6127 23.1126Z" fill="#1A287A"/>
</svg>
