<svg width="164" height="138" viewBox="0 0 164 138" fill="none" xmlns="http://www.w3.org/2000/svg">
<path d="M112.319 45.6934H106.399H105.181H103.494L96.8241 64.7467C96.5528 65.5233 95.9411 65.667 95.4943 65.6563C95.0368 65.6404 94.4464 65.4595 94.223 64.6616L90.7549 52.2519C89.6591 48.3423 86.2016 45.7147 82.1378 45.7147C78.0792 45.7147 74.6164 48.3423 73.526 52.2519L70.0579 64.6616C69.8345 65.4595 69.244 65.6404 68.7866 65.6563C68.3451 65.667 67.7281 65.5234 67.4568 64.7414L60.7865 45.6881H57.8822L57.8609 45.6934H51.962L52.6056 47.5338L52.9407 48.4966L53.8184 51.0126L59.5897 67.4915C61.0152 71.5713 64.7121 74.1458 69.0525 73.9809C73.3717 73.8426 76.9143 71.0606 78.0792 66.901L81.5473 54.4913C81.5952 54.3264 81.6697 54.0445 82.1325 54.0445C82.5952 54.0445 82.675 54.3264 82.7229 54.4913L86.191 66.901C87.3559 71.066 90.8985 73.8426 95.2177 73.9809C95.3294 73.9809 95.4411 73.9862 95.5528 73.9862C99.7284 73.9862 103.287 71.4649 104.681 67.4915L111.67 47.5285L112.319 45.6827V45.6934Z" fill="white"/>
<path d="M0.078476 69.6988C0.24869 68.6935 0.392309 67.6775 0.599757 66.6775C1.78062 61.0232 5.0998 56.9434 10.1052 54.2678C12.1371 53.1827 14.3871 52.4859 16.5786 51.7199C17.1212 51.5338 17.3712 51.337 17.5042 50.8157C19.3552 43.5603 22.35 36.7996 26.5415 30.608C35.7277 17.0441 48.1853 7.9323 63.9195 3.34183C71.1749 1.22479 78.6111 0.469463 86.1218 0.95351C102.978 2.03863 117.463 8.56528 129.431 20.4856C137.984 29.007 143.766 39.1773 146.766 50.8901C146.942 51.5816 147.383 51.6827 147.904 51.8263C152.702 53.1295 156.872 55.454 160.011 59.4009C162.139 62.0817 163.298 65.1616 163.686 68.5499C163.724 68.8744 163.803 69.1935 163.862 69.518V72.9755C163.532 74.5978 163.351 76.2734 162.846 77.8372C161.064 83.3479 157.197 87.0182 152.027 89.316C149.809 90.3001 147.378 90.8107 145.059 91.5714C144.739 91.6778 144.356 91.9384 144.239 92.2256C136.707 110.268 123.883 122.944 105.67 130.04C103.5 130.886 102.079 131.981 101.276 134.152C100.42 136.465 98.3826 137.428 96.1006 137.529C93.973 137.625 91.8134 137.386 89.6857 137.125C87.7974 136.891 86.6059 135.705 86.0899 133.848C85.6325 132.199 85.5899 130.566 86.2335 128.96C86.8506 127.428 87.9197 126.428 89.5687 126.029C92.324 125.354 95.0953 124.965 97.9305 125.37C98.2868 125.423 98.6379 125.577 98.9943 125.577C100.005 125.577 101.095 125.774 102.01 125.465C111.595 122.194 119.862 116.838 126.792 109.455C133.303 102.513 137.941 94.4757 140.729 85.3692C142.814 78.5447 143.628 71.5606 143.277 64.4594C142.782 54.6136 140.074 45.3901 135.09 36.8687C128.808 26.1399 120.074 18.0175 108.92 12.5281C102.872 9.55466 96.4783 7.70889 89.7814 6.86314C84.4835 6.19292 79.2016 6.19824 73.9249 6.92697C64.2865 8.26209 55.4407 11.6557 47.4193 17.1983C39.132 22.9271 32.6373 30.2463 27.9458 39.1454C24.0308 46.5763 21.7436 54.4806 21.1478 62.8796C20.4776 72.3691 21.7489 81.5447 25.3553 90.3692C25.4085 90.5022 25.4404 90.6512 25.4776 90.7788C22.2968 92.0288 19.1478 91.8799 15.9456 91.0022C11.1158 89.6831 6.87109 87.4809 3.77 83.4117C1.69551 80.6883 0.652949 77.5659 0.25401 74.1989C0.211456 73.8425 0.136987 73.4914 0.078476 73.1404C0.078476 71.9861 0.078476 70.8372 0.078476 69.6829L0.078476 69.6988Z" fill="#76C6FB"/>
<path d="M82.0686 118.55C77.2175 118.545 72.4409 117.965 67.8398 116.449C65.4089 115.646 63.1004 114.471 60.7759 113.369C55.6535 110.944 50.9832 107.811 46.7226 104.077C43.1055 100.907 40.3076 97.0661 37.9246 92.9225C33.0522 84.4384 30.6958 75.2627 31.2543 65.5073C32.2916 47.2731 40.7225 33.3262 56.2439 23.7304C62.3823 19.9324 69.143 17.7622 76.2973 16.959C97.9943 14.5281 118.367 25.8208 127.941 45.2465C130.878 51.204 132.564 57.5179 132.941 64.1669C133.819 79.4809 128.941 92.7097 118.165 103.572C108.271 113.545 96.0954 118.396 82.058 118.55H82.0686ZM82.0846 110.885C105.92 111.029 126.282 91.2842 125.436 66.0339C124.67 43.0976 105.808 24.2729 82.0527 24.2835C58.1322 24.2942 37.9831 44.0656 38.8448 69.1935C39.6321 92.098 58.5312 110.891 82.0793 110.88L82.0846 110.885Z" fill="#FC541F"/>
<path d="M110.048 78.1883C109.67 80.2256 109.42 82.2894 108.888 84.2894C107.494 89.5448 104.861 94.0714 100.553 97.5023C97.0315 100.306 92.9783 101.864 88.5634 102.561C82.9516 103.449 77.3718 103.337 71.9196 101.694C63.2121 99.0715 57.8769 93.098 55.446 84.4596C54.8716 82.4117 54.6162 80.2681 54.212 78.1723C54.3077 78.1298 54.4088 78.0872 54.5045 78.0447C55.5258 78.816 56.5365 79.5926 57.5684 80.3532C63.3238 84.5873 69.6642 87.4703 76.7973 88.3905C83.7016 89.2788 90.3772 88.2522 96.8294 85.6671C101.5 83.7947 105.782 81.2681 109.691 78.0979C109.814 78.1298 109.931 78.1617 110.053 78.1936L110.048 78.1883Z" fill="#76C6FB"/>
</svg>
