<svg width="328" height="843" viewBox="0 0 328 843" fill="none" xmlns="http://www.w3.org/2000/svg">
<path d="M-90.2526 797.762L59.49 407.505L-308.098 266.457L-280.055 193.369L87.5371 334.42L95.3648 314.029C115.141 262.483 173.171 236.639 224.713 256.42C276.259 276.197 302.104 334.226 282.327 385.772C272.743 410.743 254.016 430.487 229.586 441.368C205.156 452.248 177.949 452.966 152.979 443.381L132.593 435.557L-17.1496 825.815L-90.2426 797.769L-90.2526 797.762ZM201.092 331.812C199.735 330.893 198.254 330.115 196.661 329.502C191.215 327.412 185.28 327.568 179.954 329.941C174.628 332.313 170.537 336.622 168.448 342.068L160.62 362.459L181.011 370.287C186.457 372.376 192.392 372.22 197.718 369.848C203.044 367.475 207.135 363.166 209.224 357.72C212.926 348.069 209.297 337.38 201.083 331.814L201.092 331.812Z" fill="#FC541F"/>
<path style="mix-blend-mode:multiply" d="M87.5405 334.415L59.495 407.508L7.09605 387.401L35.8313 314.579L87.5405 334.415Z" fill="url(#paint0_linear_124_949)"/>
<path style="mix-blend-mode:multiply" d="M229.576 441.361C248.016 433.146 263.2 419.886 273.667 403.139L205.988 363.43C203.827 366.179 201.01 368.382 197.726 369.846C192.4 372.219 186.462 372.379 181.019 370.285L160.629 362.457L132.583 435.55L152.969 443.375C177.935 452.956 205.147 452.242 229.576 441.361Z" fill="url(#paint1_linear_124_949)"/>
<defs>
<linearGradient id="paint0_linear_124_949" x1="49.9805" y1="361.839" x2="172.921" y2="404.188" gradientUnits="userSpaceOnUse">
<stop stop-color="white"/>
<stop offset="0.99" stop-color="#170868"/>
</linearGradient>
<linearGradient id="paint1_linear_124_949" x1="179.21" y1="403.304" x2="74.8275" y2="363.219" gradientUnits="userSpaceOnUse">
<stop stop-color="white"/>
<stop offset="0.99" stop-color="#170868"/>
</linearGradient>
</defs>
</svg>
