<svg width="124" height="292" viewBox="0 0 124 292" fill="none" xmlns="http://www.w3.org/2000/svg">
<path d="M312 96.8729L312 211.63L284.497 211.63C258.197 211.63 237.593 206.826 219.652 196.508C203.247 187.074 190.509 173.927 176.432 157.085L176.375 157.015L162.312 140.012C147.89 122.724 143.765 119.014 132.894 119.014C123.843 119.014 113.055 123.463 113.055 144.669C113.055 165.874 121.334 174.048 143.6 174.048L162.087 174.048L162.087 292L143.6 292C101.797 292 66.3217 279.127 41.009 254.767C27.6997 241.961 17.4517 226.18 10.5524 207.863C3.55066 189.278 -5.41953e-06 168.016 -6.44006e-06 144.669C-8.27605e-06 102.666 12.4472 66.5587 36.0016 40.2507C59.2374 14.2946 91.8477 -4.01479e-06 127.821 -5.58723e-06C148.616 -6.49619e-06 167.863 4.23193 185.033 12.5803C201.287 20.4827 215.765 32.1253 228.07 47.1803L246.711 69.5869C265.904 93.044 271.202 96.8676 284.497 96.8676L312 96.8676L312 96.8729ZM275.028 176.439L275.028 131.25C266.422 104.751 265.161 71.3092 217.501 90.9966L198.843 68.5712C180.361 45.9282 157.128 34.9197 127.821 34.9197C102.548 34.9197 80.5613 44.5605 64.2334 62.7969C46.3976 82.7207 36.9718 111.031 36.9718 144.671C36.9718 164.017 39.8027 181.34 45.3847 196.162C50.4717 209.661 57.8775 221.15 67.3943 230.313C81.9241 244.293 101.643 253.015 125.112 255.962L125.112 207.339C111.621 204.776 100.65 199.203 92.3627 190.677C81.5599 179.564 76.0803 164.085 76.0803 144.674C76.0803 120.121 86.021 105.936 94.3628 98.3589C104.483 89.1641 118.168 84.1018 132.891 84.1018C162.73 84.1018 176.642 100.777 191.371 118.433L191.417 118.49L205.477 135.487C226.969 161.193 241.744 174.429 275.022 176.442L275.028 176.439Z" fill="#79CBFD"/>
</svg>
