<svg width="1440" height="290" viewBox="0 0 1440 290" fill="none" xmlns="http://www.w3.org/2000/svg">
<path d="M-217.696 382.02C-92.6117 341.023 32.5841 300.025 155.483 252.833C215.987 229.606 275.973 204.904 334.995 178.101C374.788 160.035 438.627 139.057 445.371 88.2889C451.595 41.5397 404.985 6.95699 363.117 1.13177C316.914 -5.28335 273.491 15.9898 247.925 54.3699C185.012 148.827 254.372 261.903 338.182 314.698C426.141 370.112 536.628 377.117 637.259 362.517C751.932 345.852 863.159 306.993 974.794 277.203C1032.04 261.94 1089.8 248.298 1148.6 240.261C1207.14 232.26 1266.24 230.306 1325.26 230.011C1380.02 229.753 1437.86 226.509 1491.06 241.699C1515.89 248.814 1541.19 261.018 1558.72 280.484C1567.87 290.697 1573.61 304.67 1569.69 318.348C1566.09 330.847 1555.5 334.423 1543.97 337.446C1513.67 345.373 1478.47 352.415 1448.23 340.47C1421 329.704 1406.07 303.675 1414.22 275.212C1425.37 236.279 1458.65 209.992 1493.36 193.143C1563.54 159.076 1639.64 134.817 1714.15 111.995C1726.15 108.309 1738.16 104.732 1750.27 101.525C1770.84 96.0682 1762.09 64.3244 1741.49 69.7809C1671.39 88.3258 1602.07 112.88 1534.75 139.647C1505.07 151.445 1473.21 163.095 1446.75 181.382C1410.89 206.194 1376.13 250.916 1378.76 296.522C1382.13 355.143 1441.49 382.315 1494.03 379.218C1538.38 376.638 1601.7 367.125 1603.85 311.712C1605.85 259.764 1551.05 226.546 1507.63 212.351C1456.87 195.761 1401.77 197.088 1349.01 197.051C1230.82 196.94 1116.44 207.264 1001.58 236.205C888.095 264.778 776.756 302.532 661.749 325.022C559.229 345.078 442.962 343.013 352.558 284.835C306.207 255.008 264.339 207.153 257.781 150.744C252.186 102.705 276.936 46.2957 327.919 34.8296C349.112 30.0735 373.232 33.3548 391.128 46.0745C411.877 60.785 420.287 84.7127 401.243 104.253C382.865 123.093 354.484 133.047 331.031 143.85C300.353 157.97 269.378 171.575 238.218 184.553C116.727 235.173 -7.80162 278.125 -132.738 319.491C-163.972 329.851 -195.28 340.101 -226.551 350.35C-246.67 356.95 -238.074 388.73 -217.77 382.094" fill="#73C2FA" fill-opacity="0.07"/>
</svg>
