<?xml version="1.0" encoding="utf-8"?>
<!-- Generator: Adobe Illustrator 24.3.0, SVG Export Plug-In . SVG Version: 6.00 Build 0)  -->
<svg version="1.1" id="Capa_1" xmlns="http://www.w3.org/2000/svg" xmlns:xlink="http://www.w3.org/1999/xlink" x="0px" y="0px"
	 viewBox="0 0 475 678.2" style="enable-background:new 0 0 475 678.2;" xml:space="preserve">
<style type="text/css">
	.st0{fill:#FC541F;}
	.st1{fill:#1A287A;}
</style>
<path class="st0" d="M-296.2,155.2L-350,218l15.3,13.1c44.7,38.3,87.1,59.7,133.5,67.3c42.4,6.9,84.3,1.8,134.2-7.9l0.2,0l50.2-10.1
	c51.1-10.1,63.9-10.7,82.3,5.1c15.4,13.2,26.8,36.9-5.9,75c-32.7,38.1-59.4,40.8-97.2,8.3l-53.9,62.8
	c37.7,32.4,76.5,46.4,115.2,41.8c35.5-4.2,68.7-24.1,98.6-59c37.9-44.2,42.9-84.1,40.4-109.9c-3-31.3-18.4-60.3-43.4-81.8
	c-50.7-43.5-100-33.8-152.3-23.5l-0.2,0l-50.1,10.1c-83,16.3-129.6,17.5-197.8-41L-296.2,155.2L-296.2,155.2z"/>
<path class="st1" d="M-173,11.7l-53.9,62.8l15.3,13.1c57,48.9,112.5,37.5,176.7,24.3l66.3-13.1c66.3-13.8,122.8,0.2,172.5,42.9
	c42.9,36.8,65.4,86.2,65,142.8c-0.4,61.8-28.1,126.4-80,186.9c-29.8,34.8-61.4,61.8-93.7,80.3c-29.4,16.9-59.8,26.7-90.1,29.4
	c-57.9,5-116.9-16.8-170.7-62.9l-53.9,62.8c71,60.9,151.1,89.5,231.7,82.5c42.4-3.6,84.1-17.1,124.1-40
	c40.6-23.2,79.4-56.3,115.5-98.3c64.8-75.5,99.3-158.6,99.9-240.2c0.6-80.5-32.8-153.7-93.8-206.1c-35.3-30.3-74.5-50.7-116.6-60.7
	c-39.8-9.5-82.4-9.6-126.5-0.5l-66.2,13.1c-68.8,14.2-83.7,13.4-106.3-6L-173,11.7L-173,11.7z"/>
</svg>
