<svg width="463" height="953" viewBox="0 0 463 953" fill="none" xmlns="http://www.w3.org/2000/svg">
<path d="M771.058 317.752L824.931 380.55L809.621 393.683C764.949 432.007 722.53 453.376 676.165 460.976C633.751 467.898 591.848 462.826 541.956 453.054L541.744 453.013L491.588 442.933C440.452 432.85 427.728 432.212 409.27 448.046C393.91 461.223 382.454 484.961 415.155 523.08C447.857 561.199 474.539 563.862 512.351 531.424L566.224 594.222C528.515 626.572 489.766 640.615 450.987 635.974C415.479 631.727 382.314 611.872 352.379 576.978C314.495 532.818 309.492 492.847 311.99 467.06C314.981 435.786 330.43 406.756 355.441 385.3C406.104 341.837 455.451 351.544 507.695 361.832L507.86 361.868L557.968 371.945C640.994 388.223 687.593 389.443 755.767 330.959L771.076 317.825L771.058 317.752Z" fill="#FC541F"/>
<path d="M647.895 174.185L701.768 236.983L686.459 250.116C629.421 299.048 573.96 287.653 509.769 274.37L443.486 261.238C377.158 247.434 320.731 261.488 270.964 304.182C228.058 340.99 205.575 390.364 205.983 446.943C206.423 508.739 234.105 573.385 286.001 633.878C315.847 668.669 347.388 695.696 379.723 714.22C409.17 731.088 439.489 740.942 469.786 743.571C527.699 748.552 586.724 726.802 640.485 680.682L694.335 743.454C623.345 804.355 543.228 832.911 462.668 825.982C420.297 822.334 378.555 808.903 338.613 786.018C298.026 762.796 259.173 729.732 223.156 687.747C158.368 612.226 123.818 529.163 123.22 447.549C122.634 367.036 155.983 293.807 217.066 241.406C252.369 211.12 291.583 190.678 333.634 180.691C373.42 171.224 415.987 171.06 460.113 180.224L526.348 193.352C595.131 207.584 610.028 206.715 632.608 187.344L647.917 174.211L647.895 174.185Z" fill="#1A287A"/>
</svg>
