<svg width="1440" height="737" viewBox="0 0 1440 737" fill="none" xmlns="http://www.w3.org/2000/svg">
<mask id="mask0_87_938" style="mask-type:alpha" maskUnits="userSpaceOnUse" x="0" y="0" width="1440" height="737">
<rect width="1440" height="737" fill="#76C6FD"/>
</mask>
<g mask="url(#mask0_87_938)">
<path d="M850.632 1453.26L674.456 697.93L-37.0025 863.868L-70 722.41L641.469 556.473L632.27 517.003C608.997 417.239 671.236 317.14 771 293.879C870.764 270.606 970.863 332.845 994.135 432.609C1005.4 480.943 997.187 530.763 970.986 572.904C944.785 615.045 903.739 644.466 855.405 655.733L815.947 664.933L992.123 1420.26L850.654 1453.26H850.632ZM813.186 434.275C810.145 434.275 807.06 434.621 803.975 435.336C793.434 437.796 784.481 444.212 778.769 453.4C773.057 462.588 771.257 473.465 773.716 484.006L782.916 523.475L822.385 514.276C832.926 511.816 841.88 505.4 847.592 496.212C853.304 487.024 855.103 476.147 852.644 465.607C848.285 446.928 831.585 434.286 813.175 434.286L813.186 434.275Z" fill="#FC541F"/>
<path style="mix-blend-mode:multiply" d="M641.469 556.461L674.467 697.93L573.049 721.583L541.393 579.812L641.469 556.461Z" fill="url(#paint0_linear_87_938)"/>
<path style="mix-blend-mode:multiply" d="M970.963 572.904C990.737 541.092 1000.26 504.92 998.908 468.3L853.617 477.746C853.158 484.218 851.124 490.533 847.603 496.201C841.891 505.389 832.937 511.816 822.396 514.264L782.927 523.464L815.924 664.933L855.383 655.733C903.705 644.466 944.762 615.045 970.963 572.904Z" fill="url(#paint1_linear_87_938)"/>
</g>
<defs>
<linearGradient id="paint0_linear_87_938" x1="612.317" y1="637.681" x2="845.244" y2="574.771" gradientUnits="userSpaceOnUse">
<stop stop-color="white"/>
<stop offset="0.99" stop-color="#170868"/>
</linearGradient>
<linearGradient id="paint1_linear_87_938" x1="853.986" y1="566.868" x2="651.921" y2="613.939" gradientUnits="userSpaceOnUse">
<stop stop-color="white"/>
<stop offset="0.99" stop-color="#170868"/>
</linearGradient>
</defs>
</svg>
