<svg width="262" height="290" viewBox="0 0 262 290" fill="none" xmlns="http://www.w3.org/2000/svg">
<path d="M265.184 -126L317.592 -126L317.592 -113.224C317.592 -75.9415 310.371 -46.7355 294.903 -21.311C280.738 1.93425 261.018 19.9878 235.743 39.9428L235.636 40.0283L210.104 59.9833C184.167 80.4083 178.612 86.2623 178.612 101.667C178.612 114.486 185.3 129.783 217.112 129.783C248.925 129.783 261.21 118.054 261.21 86.4974L313.618 86.4974C313.618 117.968 304.389 142.388 286.164 159.117C269.478 174.436 246.254 182.192 217.134 182.192C180.279 182.192 158.999 168.112 147.633 156.276C133.831 141.94 126.246 122.54 126.246 101.667C126.246 59.385 151.265 39.6651 177.758 18.7913L177.843 18.7272L203.353 -1.20641C245.421 -34.4078 265.226 -56.307 265.226 -113.202L265.226 -125.979L265.184 -126Z" fill="#FC541F"/>
<path d="M145.368 -126L197.777 -126L197.777 -113.224C197.777 -65.6221 169.425 -43.6588 136.566 -18.2771L102.916 8.17291C68.9239 34.3665 52.4086 67.2901 52.4086 108.824C52.4086 144.632 66.8728 175.804 94.2415 198.942C124.131 224.217 166.626 237.57 217.112 237.57C246.147 237.57 272.149 233.553 294.39 225.648C314.644 218.448 331.886 207.937 345.645 194.455C371.924 168.668 385.811 131.321 385.811 86.4546L438.198 86.4546C438.198 145.7 418.884 195.994 382.329 231.866C363.1 250.731 339.427 265.259 311.952 275.023C284.049 284.958 252.13 290 217.091 290C154.064 290 99.8819 272.352 60.3992 238.98C21.4506 206.057 1.91371e-05 159.822 1.46805e-05 108.845C1.21048e-05 79.3828 6.34547 52.0996 18.8868 27.7647C30.7444 4.73316 48.2211 -15.7987 70.8254 -33.2326L104.454 -59.6613C139.664 -86.8591 145.39 -94.3796 145.39 -113.224L145.39 -126L145.368 -126Z" fill="#1A287A"/>
</svg>
