<svg width="748" height="143" viewBox="0 0 748 143" fill="none" xmlns="http://www.w3.org/2000/svg">
<path d="M7.59359 142.634C54.3752 127.327 101.198 112.02 147.163 94.3998C169.791 85.7275 192.226 76.5046 214.3 66.4971C229.183 59.752 253.059 51.9194 255.581 32.9643C257.909 15.5096 240.476 2.59752 224.818 0.422566C207.538 -1.97264 191.297 5.97007 181.736 20.3C158.207 55.5673 184.147 97.7861 215.492 117.498C248.389 138.188 289.711 140.803 327.347 135.352C370.235 129.13 411.834 114.621 453.585 103.499C474.994 97.7999 496.598 92.7066 518.589 89.7058C540.483 86.7187 562.585 85.9891 584.66 85.879C605.14 85.7826 626.771 84.5712 646.67 90.2426C655.955 92.8994 665.419 97.4558 671.973 104.724C675.396 108.537 677.544 113.754 676.075 118.861C674.731 123.528 670.768 124.863 666.458 125.992C655.123 128.951 641.959 131.581 630.651 127.12C620.466 123.101 614.882 113.382 617.931 102.755C622.102 88.2191 634.545 78.4043 647.529 72.1134C673.775 59.3941 702.237 50.3364 730.104 41.8155C734.594 40.4389 739.083 39.1037 743.615 37.9061C751.305 35.8688 748.035 24.0167 740.331 26.054C714.113 32.978 688.186 42.1459 663.008 52.1397C651.908 56.5446 639.991 60.8945 630.097 67.7222C616.683 76.9864 603.685 93.684 604.669 110.712C605.93 132.599 628.129 142.744 647.779 141.588C664.366 140.624 688.048 137.073 688.851 116.383C689.6 96.9877 669.105 84.585 652.864 79.2853C633.88 73.0908 613.275 73.5863 593.542 73.5726C549.338 73.5313 506.561 77.3856 463.604 88.1916C421.159 98.8598 379.519 112.956 336.506 121.353C298.164 128.841 254.68 128.07 220.869 106.348C203.533 95.212 187.875 77.3443 185.422 56.2831C183.33 38.3466 192.586 17.2853 211.654 13.0043C219.58 11.2285 228.601 12.4536 235.294 17.2027C243.054 22.6952 246.199 31.629 239.077 38.9247C232.204 45.9589 221.589 49.6756 212.818 53.7089C201.344 58.9811 189.759 64.0606 178.105 68.9061C132.668 87.8061 86.0942 103.843 39.368 119.288C27.6864 123.156 15.9772 126.983 4.28174 130.81C-3.24268 133.274 -0.0278246 145.14 7.56588 142.662" fill="#73C2FA"/>
</svg>
