<svg width="211" height="307" viewBox="0 0 211 307" fill="none" xmlns="http://www.w3.org/2000/svg">
<path d="M259.449 391.544C176.454 391.544 111.496 371.716 66.3748 332.609C22.3315 294.44 0 240.44 0 172.121C0 103.801 22.9667 50.9643 66.4164 13.6143C111.652 -25.2814 176.6 -45 259.449 -45C342.298 -45 405.075 -24.7574 450.357 13.5438C495.197 51.4663 518.898 106.302 518.898 172.121C518.898 237.939 495.213 294.471 450.399 332.679C405.231 371.187 339.205 391.544 259.449 391.544ZM259.449 -20.8119C184.551 -20.8119 126.465 -3.52393 86.8058 30.5764C48.1826 63.7783 28.6003 111.402 28.6003 172.121C28.6003 298.02 110.585 367.356 259.449 367.356C331.405 367.356 390.413 349.474 430.093 315.647C469.476 282.066 490.298 232.439 490.298 172.125C490.298 111.811 469.492 63.9369 430.134 30.6512C390.329 -3.01313 331.306 -20.8075 259.449 -20.8075V-20.8119Z" fill="white"/>
<path d="M259.449 324.106C202.295 324.106 157.455 310.363 126.179 283.255C95.6623 256.804 80.1829 219.542 80.1829 172.5C80.1829 125.458 96.0997 88.9574 126.215 63.0652C157.57 36.1117 202.394 22.4434 259.444 22.4434C316.493 22.4434 359.844 36.4639 391.214 62.9947C422.283 89.2701 438.705 127.135 438.705 172.5C438.705 217.864 422.298 256.861 391.256 283.326C359.964 310.006 314.385 324.106 259.444 324.106H259.449ZM259.449 46.6315C162.292 46.6315 108.788 91.3309 108.788 172.5C108.788 213.007 121.529 244.588 146.651 266.359C172.341 288.623 210.293 299.913 259.449 299.913C355.195 299.913 410.109 253.47 410.109 172.495C410.109 133.688 396.582 101.736 370.997 80.0933C345.109 58.1993 306.538 46.6271 259.449 46.6271V46.6315Z" fill="#79CBFD"/>
<path d="M259.449 256.667C197.411 256.667 160.371 225.345 160.371 172.878C160.371 120.411 197.406 89.8818 259.449 89.8818C321.492 89.8818 358.522 121.684 358.522 172.878C358.522 224.072 320.56 256.667 259.449 256.667ZM259.449 114.074C213.344 114.074 188.976 134.41 188.976 172.878C188.976 211.347 213.344 232.479 259.449 232.479C305.554 232.479 329.921 211.311 329.921 172.878C329.921 154.529 323.673 139.544 311.859 129.552C299.889 119.425 281.765 114.074 259.454 114.074H259.449Z" fill="#FC541F"/>
</svg>
