<?xml version="1.0" encoding="utf-8"?>
<!-- Generator: Adobe Illustrator 24.3.0, SVG Export Plug-In . SVG Version: 6.00 Build 0)  -->
<svg version="1.1" id="Capa_1" xmlns="http://www.w3.org/2000/svg" xmlns:xlink="http://www.w3.org/1999/xlink" x="0px" y="0px"
	 viewBox="0 0 800 800" style="enable-background:new 0 0 800 800;" xml:space="preserve">
<style type="text/css">
	.st0{fill:#FFFFFF;}
</style>
<g id="SVGRepo_bgCarrier">
</g>
<g id="SVGRepo_tracerCarrier">
</g>
<g id="SVGRepo_iconCarrier">
	<path class="st0" d="M799.1,397.5c-0.9-76.1-23.6-150.3-65.3-213.9S633.1,69.6,563.8,38.4C494.4,7.2,417.5-3.5,342.3,7.5
		c-75.3,11-145.8,43.3-203.4,93C81.4,150.3,39.3,215.5,17.5,288.4C-4.2,361.3-4.7,438.9,16.2,512s62.2,138.8,119.2,189.2
		c56.9,50.4,127.1,83.6,202.2,95.4V513.8h-99.8V397.5h99.8v-88.3c-2.3-20.5-0.1-41.3,6.5-60.9c6.6-19.6,17.4-37.5,31.7-52.4
		c14.3-14.9,31.7-26.6,50.9-34.1c19.3-7.5,39.9-10.7,60.5-9.3c29.9,0.4,59.8,3.1,89.3,8v99.8h-49.9c-8.6-1.1-17.3-0.2-25.6,2.5
		c-8.2,2.7-15.7,7.3-22,13.3c-6.2,6-11,13.4-14,21.5c-3,8.1-4.1,16.8-3.3,25.5v75.3h110.8l-18,116.3h-92.3v279.4
		c94.3-14.9,180.1-63.1,241.9-135.9C766,585.5,799.7,493,799.1,397.5z"/>
</g>
</svg>
