<?xml version="1.0" encoding="utf-8"?>
<!-- Generator: Adobe Illustrator 24.3.0, SVG Export Plug-In . SVG Version: 6.00 Build 0)  -->
<svg version="1.1" id="Capa_1" xmlns="http://www.w3.org/2000/svg" xmlns:xlink="http://www.w3.org/1999/xlink" x="0px" y="0px"
	 viewBox="0 0 800 800" style="enable-background:new 0 0 800 800;" xml:space="preserve">
<style type="text/css">
	.st0{fill:#FFFFFF;}
</style>
<g id="SVGRepo_bgCarrier">
</g>
<g id="SVGRepo_tracerCarrier">
</g>
<g id="SVGRepo_iconCarrier">
	<path class="st0" d="M567.8,0H232.6C87,0,0.2,86.8,0.2,232.4v334.8C0.2,713.2,87,800,232.6,800h334.8
		c145.6,0,232.4-86.8,232.4-232.4V232.4C800.2,86.8,713.4,0,567.8,0z M400.2,555.2C314.6,555.2,245,485.6,245,400
		s69.6-155.2,155.2-155.2S555.4,314.4,555.4,400S485.8,555.2,400.2,555.2z M637,195.2c-2,4.8-4.8,9.2-8.4,13.2
		c-4,3.6-8.4,6.4-13.2,8.4c-4.8,2-10,3.2-15.2,3.2c-10.8,0-20.8-4-28.4-11.6c-3.6-4-6.4-8.4-8.4-13.2c-2-4.8-3.2-10-3.2-15.2
		c0-5.2,1.2-10.4,3.2-15.2c2-5.2,4.8-9.2,8.4-13.2c9.2-9.2,23.2-13.6,36-10.8c2.8,0.4,5.2,1.2,7.6,2.4c2.4,0.8,4.8,2,7.2,3.6
		c2,1.2,4,3.2,6,4.8c3.6,4,6.4,8,8.4,13.2c2,4.8,3.2,10,3.2,15.2C640.2,185.2,639,190.4,637,195.2z"/>
</g>
</svg>
