<?xml version="1.0" encoding="utf-8"?>
<!-- Generator: Adobe Illustrator 24.3.0, SVG Export Plug-In . SVG Version: 6.00 Build 0)  -->
<svg version="1.1" id="Capa_1" xmlns="http://www.w3.org/2000/svg" xmlns:xlink="http://www.w3.org/1999/xlink" x="0px" y="0px"
	 viewBox="0 0 800 800" style="enable-background:new 0 0 800 800;" xml:space="preserve">
<style type="text/css">
	.st0{fill:#FFFFFF;}
</style>
<g id="SVGRepo_bgCarrier">
</g>
<g id="SVGRepo_tracerCarrier">
</g>
<g id="SVGRepo_iconCarrier">
	<path class="st0" d="M717.6,238.6c0,6.9,0,14.2,0,21.1c0.4,61.3-11.4,122.1-34.7,178.8S625.3,546.7,582,590s-94.9,77.6-151.6,100.9
		c-56.7,23.3-117.5,35.1-178.8,34.7C162.4,725.9,75.1,700.4,0,652.2c13.4,0,26,0,40.6,0c73.6,0,145.1-24.7,202.9-70.2
		c-34.3-0.3-67.6-11.5-95.2-31.9s-48-49-58.2-81.8c10.3,1.6,20.8,2.5,31.3,2.4c14.5-0.1,28.9-1.9,43-5.3
		c-36.7-7.5-69.6-27.4-93.3-56.4s-36.6-65.3-36.6-102.7c22.7,12.5,48,19.6,73.9,20.7c-22.8-15.1-41.6-35.7-54.5-59.8
		C41,243,34.3,216,34.5,188.6c0.1-28.5,7.6-56.5,21.9-81.2c41.1,50.6,92.3,92.1,150.4,121.7s121.8,46.6,186.9,50
		c-2.6-12.3-3.9-24.8-4.1-37.3c-1.1-33.4,8.2-66.3,26.6-94.3c18.4-27.9,44.9-49.5,76-61.8s65.2-14.7,97.7-6.9s61.8,25.5,83.9,50.6
		c36.7-7.4,71.9-21.1,103.9-40.6c-12.2,37.9-37.9,69.9-72.2,90.1c32.6-3.5,64.5-12,94.6-25.2c-22.3,32.5-49.7,61.2-81.2,84.8h-1.3
		V238.6z"/>
</g>
</svg>
