<svg xmlns="http://www.w3.org/2000/svg" xmlns:xlink="http://www.w3.org/1999/xlink" width="500" zoomAndPan="magnify" viewBox="0 0 375 149.999998" height="200" preserveAspectRatio="xMidYMid meet" version="1.0"><defs><g/><clipPath id="16ddf6cd09"><path d="M 3.933594 23.625 L 105.933594 23.625 L 105.933594 135.375 L 3.933594 135.375 Z M 3.933594 23.625 " clip-rule="nonzero"/></clipPath></defs><path fill="#545454" d="M 91.335938 74.640625 C 91.335938 54.546875 75.007812 38.199219 54.933594 38.199219 C 34.863281 38.199219 18.53125 54.546875 18.53125 74.640625 C 18.53125 94.734375 34.863281 111.082031 54.933594 111.082031 C 75.007812 111.082031 91.335938 94.734375 91.335938 74.640625 Z M 23.386719 74.640625 C 23.386719 57.226562 37.539062 43.058594 54.933594 43.058594 C 72.328125 43.058594 86.480469 57.226562 86.480469 74.640625 C 86.480469 92.054688 72.328125 106.222656 54.933594 106.222656 C 37.539062 106.222656 23.386719 92.054688 23.386719 74.640625 Z M 23.386719 74.640625 " fill-opacity="1" fill-rule="nonzero"/><g clip-path="url(#16ddf6cd09)"><path fill="#545454" d="M 54.933594 23.625 C 26.832031 23.625 3.972656 46.507812 3.972656 74.640625 L 3.972656 89.214844 C 3.972656 90.558594 5.058594 91.644531 6.398438 91.644531 L 11.253906 91.644531 C 12.59375 91.644531 13.679688 90.558594 13.679688 89.214844 L 13.679688 74.640625 C 13.679688 73.300781 12.59375 72.210938 11.253906 72.210938 C 9.914062 72.210938 8.824219 73.300781 8.824219 74.640625 C 8.824219 49.1875 29.507812 28.484375 54.933594 28.484375 C 80.359375 28.484375 101.042969 49.1875 101.042969 74.640625 C 101.042969 73.300781 99.957031 72.210938 98.617188 72.210938 C 97.273438 72.210938 96.1875 73.300781 96.1875 74.640625 L 96.1875 89.214844 C 96.1875 90.558594 97.273438 91.644531 98.617188 91.644531 L 101.042969 91.644531 L 101.042969 107.351562 L 73.613281 125.65625 L 66.617188 125.65625 C 65.613281 122.835938 62.945312 120.796875 59.789062 120.796875 L 50.082031 120.796875 C 46.066406 120.796875 42.800781 124.066406 42.800781 128.085938 C 42.800781 132.105469 46.066406 135.375 50.082031 135.375 L 59.789062 135.375 C 62.949219 135.375 65.613281 133.335938 66.617188 130.515625 L 74.347656 130.515625 C 74.828125 130.515625 75.296875 130.371094 75.695312 130.105469 L 104.816406 110.671875 C 105.492188 110.222656 105.894531 109.460938 105.894531 108.652344 L 105.894531 74.640625 C 105.894531 46.507812 83.035156 23.625 54.933594 23.625 Z M 59.789062 130.515625 L 50.082031 130.515625 C 48.742188 130.515625 47.652344 129.425781 47.652344 128.085938 C 47.652344 126.746094 48.742188 125.65625 50.082031 125.65625 L 59.789062 125.65625 C 61.128906 125.65625 62.214844 126.746094 62.214844 128.085938 C 62.214844 129.425781 61.128906 130.515625 59.789062 130.515625 Z M 59.789062 130.515625 " fill-opacity="1" fill-rule="nonzero"/></g><g fill="#3d64ff" fill-opacity="1"><g transform="translate(108.923687, 88.655794)"><g><path d="M 67.0625 0.371094 L 88.207031 -63.246094 L 88.207031 -65.203125 L 72.28125 -65.203125 L 59.800781 -27.476562 L 51.695312 -50.296875 L 38.1875 -50.296875 L 29.992188 -27.476562 L 17.511719 -65.203125 L 1.582031 -65.203125 L 1.582031 -63.246094 L 22.726562 0.371094 L 36.792969 0.371094 L 44.800781 -22.261719 L 53 0.371094 Z M 67.0625 0.371094 "/></g></g></g><g fill="#3d64ff" fill-opacity="1"><g transform="translate(199.828128, 88.655794)"><g><path d="M 53.277344 -25.335938 C 53.277344 -42.566406 40.238281 -51.136719 27.292969 -51.136719 C 14.15625 -51.136719 1.210938 -42.566406 1.210938 -25.335938 C 1.210938 -8.105469 14.15625 0.558594 27.199219 0.558594 C 37.628906 0.558594 47.96875 -4.9375 51.789062 -15.929688 L 35.859375 -15.929688 C 33.71875 -13.597656 30.644531 -12.480469 27.382812 -12.480469 C 22.914062 -12.574219 18.347656 -14.902344 16.578125 -19.558594 L 52.71875 -19.558594 C 53.09375 -21.421875 53.277344 -23.285156 53.277344 -25.335938 Z M 37.257812 -31.015625 L 17.136719 -31.015625 C 18.628906 -35.953125 22.632812 -38.375 27.011719 -38.375 C 31.761719 -38.375 35.859375 -36.046875 37.257812 -31.015625 Z M 37.257812 -31.015625 "/></g></g></g><g fill="#3d64ff" fill-opacity="1"><g transform="translate(259.437602, 88.655794)"><g><path d="M 16.578125 -47.039062 L 16.019531 -50.390625 L 2.792969 -50.390625 L 2.792969 0 L 17.417969 0 L 17.417969 -27.945312 C 17.417969 -34.742188 22.820312 -37.539062 28.128906 -37.628906 C 29.804688 -37.628906 31.574219 -37.351562 33.066406 -36.886719 L 33.253906 -50.671875 C 31.296875 -51.136719 29.339844 -51.414062 27.570312 -51.414062 C 23.472656 -51.414062 19.839844 -50.113281 16.578125 -47.039062 Z M 16.578125 -47.039062 "/></g></g></g><g fill="#3d64ff" fill-opacity="1"><g transform="translate(297.624917, 88.655794)"><g><path d="M 2.050781 -61.476562 C 2.050781 -55.980469 6.519531 -53.277344 10.992188 -53.277344 C 15.277344 -53.277344 19.652344 -55.980469 19.652344 -61.476562 C 19.652344 -67.25 15.183594 -70.046875 10.710938 -70.046875 C 6.425781 -70.046875 2.050781 -67.15625 2.050781 -61.476562 Z M 3.445312 -50.390625 L 18.347656 -50.390625 L 18.347656 0 L 3.445312 0 Z M 3.445312 -50.390625 "/></g></g></g><g fill="#3d64ff" fill-opacity="1"><g transform="translate(322.586391, 88.655794)"><g><path d="M 1.863281 -34.183594 C 1.863281 -23.101562 11.734375 -19.46875 21.238281 -18.628906 C 23.660156 -18.441406 29.246094 -18.910156 29.246094 -15.277344 C 29.246094 -13.597656 26.824219 -12.203125 23.191406 -12.203125 C 19.746094 -12.203125 15.929688 -13.507812 15.835938 -16.953125 L 1.117188 -16.953125 C 1.304688 -4.097656 10.433594 1.304688 22.449219 1.304688 C 33.625 1.304688 43.964844 -2.980469 43.964844 -15.648438 C 43.964844 -27.570312 33.253906 -32.042969 22.726562 -32.320312 C 20.585938 -32.414062 16.671875 -32.507812 16.671875 -35.117188 C 16.671875 -37.816406 19.652344 -38.5625 21.796875 -38.5625 C 24.871094 -38.5625 28.78125 -38.28125 28.875 -34.371094 L 42.941406 -34.371094 C 42.847656 -46.105469 33.4375 -51.601562 22.632812 -51.601562 C 11.363281 -51.601562 1.863281 -46.386719 1.863281 -34.183594 Z M 1.863281 -34.183594 "/></g></g></g><g fill="#545454" fill-opacity="1"><g transform="translate(109.44768, 126.150351)"><g><path d="M 16.0625 -5.4375 C 16.0625 -3.582031 15.367188 -2.148438 13.984375 -1.140625 C 12.597656 -0.140625 10.660156 0.359375 8.171875 0.359375 C 5.523438 0.359375 3.460938 -0.0546875 1.984375 -0.890625 L 1.984375 -3.6875 C 2.941406 -3.207031 3.96875 -2.828125 5.0625 -2.546875 C 6.164062 -2.265625 7.222656 -2.125 8.234375 -2.125 C 9.816406 -2.125 11.03125 -2.375 11.875 -2.875 C 12.726562 -3.382812 13.15625 -4.15625 13.15625 -5.1875 C 13.15625 -5.957031 12.816406 -6.617188 12.140625 -7.171875 C 11.460938 -7.722656 10.148438 -8.375 8.203125 -9.125 C 6.347656 -9.820312 5.03125 -10.425781 4.25 -10.9375 C 3.46875 -11.457031 2.882812 -12.039062 2.5 -12.6875 C 2.113281 -13.34375 1.921875 -14.128906 1.921875 -15.046875 C 1.921875 -16.671875 2.582031 -17.953125 3.90625 -18.890625 C 5.226562 -19.828125 7.039062 -20.296875 9.34375 -20.296875 C 11.488281 -20.296875 13.585938 -19.859375 15.640625 -18.984375 L 14.5625 -16.53125 C 12.5625 -17.351562 10.75 -17.765625 9.125 -17.765625 C 7.695312 -17.765625 6.617188 -17.539062 5.890625 -17.09375 C 5.160156 -16.644531 4.796875 -16.023438 4.796875 -15.234375 C 4.796875 -14.703125 4.929688 -14.25 5.203125 -13.875 C 5.484375 -13.5 5.925781 -13.140625 6.53125 -12.796875 C 7.132812 -12.460938 8.296875 -11.972656 10.015625 -11.328125 C 12.378906 -10.472656 13.976562 -9.609375 14.8125 -8.734375 C 15.644531 -7.859375 16.0625 -6.757812 16.0625 -5.4375 Z M 16.0625 -5.4375 "/></g></g></g><g fill="#545454" fill-opacity="1"><g transform="translate(127.216453, 126.150351)"><g><path d="M 0.03125 -19.9375 L 3.28125 -19.9375 L 7.640625 -8.5625 C 8.597656 -5.96875 9.191406 -4.097656 9.421875 -2.953125 L 9.5625 -2.953125 C 9.71875 -3.566406 10.046875 -4.617188 10.546875 -6.109375 C 11.054688 -7.609375 12.707031 -12.21875 15.5 -19.9375 L 18.734375 -19.9375 L 10.171875 2.765625 C 9.316406 5.003906 8.320312 6.59375 7.1875 7.53125 C 6.0625 8.476562 4.671875 8.953125 3.015625 8.953125 C 2.097656 8.953125 1.191406 8.847656 0.296875 8.640625 L 0.296875 6.21875 C 0.960938 6.363281 1.707031 6.4375 2.53125 6.4375 C 4.601562 6.4375 6.082031 5.273438 6.96875 2.953125 L 8.078125 0.109375 Z M 0.03125 -19.9375 "/></g></g></g><g fill="#545454" fill-opacity="1"><g transform="translate(145.985515, 126.150351)"><g><path d="M 16.0625 -5.4375 C 16.0625 -3.582031 15.367188 -2.148438 13.984375 -1.140625 C 12.597656 -0.140625 10.660156 0.359375 8.171875 0.359375 C 5.523438 0.359375 3.460938 -0.0546875 1.984375 -0.890625 L 1.984375 -3.6875 C 2.941406 -3.207031 3.96875 -2.828125 5.0625 -2.546875 C 6.164062 -2.265625 7.222656 -2.125 8.234375 -2.125 C 9.816406 -2.125 11.03125 -2.375 11.875 -2.875 C 12.726562 -3.382812 13.15625 -4.15625 13.15625 -5.1875 C 13.15625 -5.957031 12.816406 -6.617188 12.140625 -7.171875 C 11.460938 -7.722656 10.148438 -8.375 8.203125 -9.125 C 6.347656 -9.820312 5.03125 -10.425781 4.25 -10.9375 C 3.46875 -11.457031 2.882812 -12.039062 2.5 -12.6875 C 2.113281 -13.34375 1.921875 -14.128906 1.921875 -15.046875 C 1.921875 -16.671875 2.582031 -17.953125 3.90625 -18.890625 C 5.226562 -19.828125 7.039062 -20.296875 9.34375 -20.296875 C 11.488281 -20.296875 13.585938 -19.859375 15.640625 -18.984375 L 14.5625 -16.53125 C 12.5625 -17.351562 10.75 -17.765625 9.125 -17.765625 C 7.695312 -17.765625 6.617188 -17.539062 5.890625 -17.09375 C 5.160156 -16.644531 4.796875 -16.023438 4.796875 -15.234375 C 4.796875 -14.703125 4.929688 -14.25 5.203125 -13.875 C 5.484375 -13.5 5.925781 -13.140625 6.53125 -12.796875 C 7.132812 -12.460938 8.296875 -11.972656 10.015625 -11.328125 C 12.378906 -10.472656 13.976562 -9.609375 14.8125 -8.734375 C 15.644531 -7.859375 16.0625 -6.757812 16.0625 -5.4375 Z M 16.0625 -5.4375 "/></g></g></g><g fill="#545454" fill-opacity="1"><g transform="translate(163.754288, 126.150351)"><g><path d="M 9.640625 -2.125 C 10.171875 -2.125 10.6875 -2.160156 11.1875 -2.234375 C 11.6875 -2.316406 12.082031 -2.398438 12.375 -2.484375 L 12.375 -0.1875 C 12.039062 -0.03125 11.554688 0.0976562 10.921875 0.203125 C 10.285156 0.304688 9.710938 0.359375 9.203125 0.359375 C 5.347656 0.359375 3.421875 -1.671875 3.421875 -5.734375 L 3.421875 -17.59375 L 0.5625 -17.59375 L 0.5625 -19.046875 L 3.421875 -20.296875 L 4.6875 -24.546875 L 6.4375 -24.546875 L 6.4375 -19.9375 L 12.21875 -19.9375 L 12.21875 -17.59375 L 6.4375 -17.59375 L 6.4375 -5.859375 C 6.4375 -4.660156 6.722656 -3.738281 7.296875 -3.09375 C 7.867188 -2.445312 8.648438 -2.125 9.640625 -2.125 Z M 9.640625 -2.125 "/></g></g></g><g fill="#545454" fill-opacity="1"><g transform="translate(176.903543, 126.150351)"><g><path d="M 11.625 0.359375 C 8.675781 0.359375 6.347656 -0.535156 4.640625 -2.328125 C 2.941406 -4.117188 2.09375 -6.609375 2.09375 -9.796875 C 2.09375 -13.015625 2.882812 -15.566406 4.46875 -17.453125 C 6.050781 -19.347656 8.175781 -20.296875 10.84375 -20.296875 C 13.34375 -20.296875 15.316406 -19.472656 16.765625 -17.828125 C 18.222656 -16.191406 18.953125 -14.023438 18.953125 -11.328125 L 18.953125 -9.421875 L 5.21875 -9.421875 C 5.28125 -7.078125 5.867188 -5.300781 6.984375 -4.09375 C 8.109375 -2.882812 9.691406 -2.28125 11.734375 -2.28125 C 13.878906 -2.28125 16 -2.726562 18.09375 -3.625 L 18.09375 -0.921875 C 17.03125 -0.460938 16.019531 -0.132812 15.0625 0.0625 C 14.113281 0.257812 12.96875 0.359375 11.625 0.359375 Z M 10.796875 -17.765625 C 9.203125 -17.765625 7.925781 -17.242188 6.96875 -16.203125 C 6.019531 -15.160156 5.460938 -13.71875 5.296875 -11.875 L 15.71875 -11.875 C 15.71875 -13.78125 15.289062 -15.238281 14.4375 -16.25 C 13.59375 -17.257812 12.378906 -17.765625 10.796875 -17.765625 Z M 10.796875 -17.765625 "/></g></g></g><g fill="#545454" fill-opacity="1"><g transform="translate(197.800493, 126.150351)"><g><path d="M 28.609375 0 L 28.609375 -12.96875 C 28.609375 -14.550781 28.269531 -15.738281 27.59375 -16.53125 C 26.914062 -17.332031 25.859375 -17.734375 24.421875 -17.734375 C 22.546875 -17.734375 21.160156 -17.191406 20.265625 -16.109375 C 19.367188 -15.035156 18.921875 -13.375 18.921875 -11.125 L 18.921875 0 L 15.890625 0 L 15.890625 -12.96875 C 15.890625 -14.550781 15.550781 -15.738281 14.875 -16.53125 C 14.195312 -17.332031 13.132812 -17.734375 11.6875 -17.734375 C 9.800781 -17.734375 8.414062 -17.164062 7.53125 -16.03125 C 6.65625 -14.894531 6.21875 -13.035156 6.21875 -10.453125 L 6.21875 0 L 3.203125 0 L 3.203125 -19.9375 L 5.65625 -19.9375 L 6.140625 -17.203125 L 6.296875 -17.203125 C 6.859375 -18.171875 7.660156 -18.925781 8.703125 -19.46875 C 9.742188 -20.019531 10.90625 -20.296875 12.1875 -20.296875 C 15.300781 -20.296875 17.335938 -19.171875 18.296875 -16.921875 L 18.4375 -16.921875 C 19.03125 -17.960938 19.890625 -18.785156 21.015625 -19.390625 C 22.148438 -19.992188 23.4375 -20.296875 24.875 -20.296875 C 27.132812 -20.296875 28.820312 -19.71875 29.9375 -18.5625 C 31.0625 -17.40625 31.625 -15.550781 31.625 -13 L 31.625 0 Z M 28.609375 0 "/></g></g></g></svg>