<svg id="Capa_1" data-name="Capa 1" xmlns="http://www.w3.org/2000/svg" viewBox="0 0 800 800"><defs><style>.cls-1{fill:#fff;}</style></defs><path class="cls-1" d="M768.15,245.34A400,400,0,0,0,680.25,116a392.56,392.56,0,0,0-280-116,397,397,0,0,0-344,594.5L.25,800l210-55a395.55,395.55,0,0,0,557.9-499.66ZM595.75,539a100,100,0,0,1-66.5,47,192.52,192.52,0,0,1-119-25,444.48,444.48,0,0,1-169.5-150,191,191,0,0,1-40.5-102.5,109.51,109.51,0,0,1,33-84.5,35.51,35.51,0,0,1,26.5-12.5h19.5c6.5.5,14.5-2.5,22.5,17s30.5,68.5,30.5,73.5a19,19,0,0,1,0,17.5c-19,37.5-39.5,36.5-29,54A266.53,266.53,0,0,0,437.75,491c10,7.5,16,7,21.5,0a448.65,448.65,0,0,0,31.5-38.5c6.5-10,13.5-8,22.5-5s57.5,27,67.5,32,16.5,7.5,21,12.5A81,81,0,0,1,595.75,539Z"/></svg>